<svg width="53" height="53" viewBox="0 0 53 53" fill="none" xmlns="http://www.w3.org/2000/svg">
<mask id="mask0_101_4223" style="mask-type:alpha" maskUnits="userSpaceOnUse" x="0" y="0" width="53" height="53">
<rect x="0.324707" y="0.403809" width="52" height="52" fill="#D9D9D9"/>
</mask>
<g mask="url(#mask0_101_4223)">
<path d="M26.3247 46.987C23.4719 46.987 20.7997 46.4453 18.308 45.362C15.8163 44.2786 13.6403 42.8068 11.7798 40.9463C9.92083 39.0873 8.44967 36.912 7.36633 34.4203C6.283 31.9286 5.74133 29.2564 5.74133 26.4036C5.74133 23.5509 6.283 20.8786 7.36633 18.387C8.44967 15.8953 9.92083 13.7193 11.7798 11.8588C13.6403 9.99981 15.8163 8.52865 18.308 7.44531C20.7997 6.36198 23.4719 5.82031 26.3247 5.82031C31.4886 5.82031 35.9757 7.48142 39.7862 10.8036C43.5952 14.1259 45.8788 18.2606 46.6372 23.2078H43.2788C42.7733 20.3189 41.5997 17.7276 39.758 15.4338C37.9163 13.1415 35.6052 11.4356 32.8247 10.3161V11.237C32.8247 12.4286 32.4007 13.4484 31.5528 14.2963C30.7035 15.1456 29.683 15.5703 28.4913 15.5703H24.158V19.9036C24.158 20.5175 23.9507 21.0318 23.5362 21.4463C23.1202 21.8623 22.6052 22.0703 21.9913 22.0703H17.658V26.4036H21.8288V32.9036H19.8247L9.42467 22.5036C9.31633 23.1536 9.21667 23.8036 9.12567 24.4536C9.03611 25.1036 8.99133 25.7536 8.99133 26.4036C8.99133 31.1342 10.6524 35.1967 13.9747 38.5911C17.2969 41.9856 21.4136 43.7009 26.3247 43.737V46.987Z" fill="#1C1B1F"/>
<path d="M38.7287 38.9705L45.9328 46.1747L48.262 43.8455L41.0578 36.6955C41.4912 36.0094 41.8523 35.2511 42.1412 34.4205C42.4301 33.5899 42.5745 32.7233 42.5745 31.8205C42.5745 29.4011 41.7346 27.3514 40.0547 25.6715C37.883 23.4999 35.3084 23.0503 33.9079 23.1538C31.4884 23.1538 29.4395 23.9931 27.761 25.6715C26.0811 27.3514 25.2412 29.4011 25.2412 31.8205C25.1681 33.0295 25.5699 35.9515 27.761 37.9673C29.4395 39.6472 31.4884 40.4872 33.9079 40.4872C34.8106 40.4872 35.6686 40.3514 36.4819 40.0798C37.2936 39.8097 38.0426 39.4399 38.7287 38.9705Z" fill="#0050B2"/>
</g>
</svg>
