<svg width="52" height="53" viewBox="0 0 52 53" fill="none" xmlns="http://www.w3.org/2000/svg">
<mask id="mask0_101_4239" style="mask-type:alpha" maskUnits="userSpaceOnUse" x="0" y="0" width="52" height="53">
<rect y="0.403809" width="52" height="52" fill="#D9D9D9"/>
</mask>
<g mask="url(#mask0_101_4239)">
<path d="M9.31699 42.6538C8.23366 42.6538 7.31283 42.2746 6.55449 41.5163C5.79616 40.758 5.41699 39.8371 5.41699 38.7538V14.0538C5.41699 12.9705 5.79616 12.0496 6.55449 11.2913C7.31283 10.533 8.23366 10.1538 9.31699 10.1538H42.6837C43.767 10.1538 44.6878 10.533 45.4462 11.2913C46.2045 12.0496 46.5837 12.9705 46.5837 14.0538V38.7538C46.5837 39.8371 46.2045 40.758 45.4462 41.5163C44.6878 42.2746 43.767 42.6538 42.6837 42.6538H9.31699ZM9.31699 39.4038H42.6837C42.8281 39.4038 42.9725 39.3316 43.117 39.1871C43.2614 39.0427 43.3337 38.8983 43.3337 38.7538V14.0538C43.3337 13.9094 43.2614 13.7649 43.117 13.6205C42.9725 13.476 42.8281 13.4038 42.6837 13.4038H9.31699C9.17255 13.4038 9.0281 13.476 8.88366 13.6205C8.73921 13.7649 8.66699 13.9094 8.66699 14.0538V38.7538C8.66699 38.8983 8.73921 39.0427 8.88366 39.1871C9.0281 39.3316 9.17255 39.4038 9.31699 39.4038Z" fill="#1C1B1F"/>
<path d="M27.6253 36.6956H24.3753V34.529H20.042V31.279H28.7087V28.029H21.9378C21.3962 28.029 20.9448 27.8484 20.5837 27.4873C20.2225 27.1262 20.042 26.6748 20.042 26.1331V20.1748C20.042 19.6331 20.2225 19.1817 20.5837 18.8206C20.9448 18.4595 21.3962 18.279 21.9378 18.279H24.3753V16.1123H27.6253V18.279H31.9587V21.529H23.292V24.779H30.0628C30.6045 24.779 31.0559 24.9595 31.417 25.3206C31.7781 25.6817 31.9587 26.1331 31.9587 26.6748V32.6331C31.9587 33.1748 31.7781 33.6262 31.417 33.9873C31.0559 34.3484 30.6045 34.529 30.0628 34.529H27.6253V36.6956Z" fill="#0050B2"/>
</g>
</svg>
