<svg width="52" height="52" viewBox="0 0 52 52" fill="none" xmlns="http://www.w3.org/2000/svg">
<mask id="mask0_101_4231" style="mask-type:alpha" maskUnits="userSpaceOnUse" x="0" y="0" width="52" height="52">
<rect width="52" height="52" fill="#D9D9D9"/>
</mask>
<g mask="url(#mask0_101_4231)">
<path d="M9.31699 42.25C8.23366 42.25 7.31283 41.8708 6.55449 41.1125C5.79616 40.3542 5.41699 39.4333 5.41699 38.35V13.65C5.41699 12.5667 5.79616 11.6458 6.55449 10.8875C7.31283 10.1292 8.23366 9.75 9.31699 9.75H42.6837C43.767 9.75 44.6878 10.1292 45.4462 10.8875C46.2045 11.6458 46.5837 12.5667 46.5837 13.65V38.35C46.5837 39.4333 46.2045 40.3542 45.4462 41.1125C44.6878 41.8708 43.767 42.25 42.6837 42.25H9.31699ZM9.31699 39H42.6837C42.8281 39 42.9725 38.9278 43.117 38.7833C43.2614 38.6389 43.3337 38.4944 43.3337 38.35V17.3333H8.66699V38.35C8.66699 38.4944 8.73921 38.6389 8.88366 38.7833C9.0281 38.9278 9.17255 39 9.31699 39Z" fill="#1C1B1F"/>
<path d="M13.9751 33.8L16.2501 36.075L24.1584 28.1666L16.2501 20.2583L13.9209 22.5333L19.5542 28.1666L13.9751 33.8Z" fill="#0050B2"/>
<path d="M26.5417 33.0416V36.2916H38.4584V33.0416H26.5417Z" fill="#0050B2"/>
</g>
</svg>
