<svg width="52" height="52" viewBox="0 0 52 52" fill="none" xmlns="http://www.w3.org/2000/svg">
<mask id="mask0_101_4215" style="mask-type:alpha" maskUnits="userSpaceOnUse" x="0" y="0" width="52" height="52">
<rect width="52" height="52" fill="#D9D9D9"/>
</mask>
<g mask="url(#mask0_101_4215)">
<path d="M25.5833 10C27.6417 10 29.5736 10.2708 31.3792 10.8125C33.1847 11.3542 34.9181 12.1667 36.5792 13.25L33.5458 15.2542C32.3181 14.6042 31.0361 14.1073 29.7 13.7635C28.3639 13.4212 26.9917 13.25 25.5833 13.25C20.7806 13.25 16.6913 14.9378 13.3157 18.3135C9.93855 21.6906 8.25 25.7806 8.25 30.5833C8.25 32.1 8.45728 33.5986 8.87183 35.0792C9.28783 36.5597 9.875 37.95 10.6333 39.25H40.5333C41.3639 37.8778 41.9691 36.4514 42.349 34.9708C42.7274 33.4903 42.9167 31.9556 42.9167 30.3667C42.9167 29.0667 42.7542 27.7486 42.4292 26.4125C42.1042 25.0764 41.6167 23.8125 40.9667 22.6208L42.9167 19.5875C44 21.3208 44.8038 23.0628 45.3282 24.8135C45.8511 26.5656 46.1306 28.3986 46.1667 30.3125C46.2028 32.2625 45.9861 34.1136 45.5167 35.8657C45.0472 37.6163 44.3431 39.3222 43.4042 40.9833C43.1153 41.4528 42.7094 41.8226 42.1865 42.0927C41.6622 42.3642 41.1111 42.5 40.5333 42.5H10.6333C10.0556 42.5 9.51389 42.3642 9.00833 42.0927C8.50278 41.8226 8.0875 41.4167 7.7625 40.875C6.93194 39.4306 6.26389 37.8597 5.75833 36.1625C5.25278 34.4653 5 32.6056 5 30.5833C5 27.7667 5.53228 25.1125 6.59683 22.6208C7.66283 20.1292 9.12606 17.9444 10.9865 16.0667C12.8455 14.1889 15.0302 12.7083 17.5407 11.625C20.0497 10.5417 22.7306 10 25.5833 10Z" fill="#1C1B1F"/>
<path d="M25.529 34.5919C24.3012 34.628 23.3082 34.2669 22.5498 33.5086C21.7915 32.7502 21.4484 31.7752 21.5207 30.5836C21.5929 29.3919 22.0443 28.5252 22.8748 27.9836L39.5 16.0669L28.1832 33.2919C27.6415 34.1225 26.7568 34.5558 25.529 34.5919Z" fill="#0050B2"/>
</g>
</svg>
