<svg width="55" height="55" viewBox="0 0 55 55" fill="none" xmlns="http://www.w3.org/2000/svg">
<mask id="mask0_101_4264" style="mask-type:alpha" maskUnits="userSpaceOnUse" x="0" y="0" width="55" height="55">
<rect x="0.5" y="0.5" width="54" height="54" fill="#D9D9D9"/>
</mask>
<g mask="url(#mask0_101_4264)">
<path d="M27.5 48.8186C22.625 47.5061 18.5938 44.6471 15.4062 40.2416C12.2188 35.8346 10.625 30.9123 10.625 25.4748V12.5373L27.5 6.2373L44.375 12.5373V25.4748C44.375 30.9123 42.7812 35.8346 39.5938 40.2416C36.4062 44.6471 32.375 47.5061 27.5 48.8186ZM27.5 45.2748C31.4 44.0373 34.625 41.5623 37.175 37.8498C39.725 34.1373 41 30.0123 41 25.4748V14.8436L27.5 9.78105L14 14.8436V25.4748C14 30.0123 15.275 34.1373 17.825 37.8498C20.375 41.5623 23.6 44.0373 27.5 45.2748Z" fill="#1C1B1F"/>
<path d="M30.3125 34.8125H24.6875V29.1875H19.0625V23.5625H24.6875V17.9375H30.3125V23.5625H35.9375V29.1875H30.3125V34.8125Z" fill="#0050B2"/>
</g>
</svg>
