<svg width="53" height="53" viewBox="0 0 53 53" fill="none" xmlns="http://www.w3.org/2000/svg">
<mask id="mask0_101_4248" style="mask-type:alpha" maskUnits="userSpaceOnUse" x="0" y="0" width="53" height="53">
<rect x="0.5" y="0.5" width="52" height="52" fill="#D9D9D9"/>
</mask>
<g mask="url(#mask0_101_4248)">
<path d="M9.81699 44.9167C8.73366 44.9167 7.81283 44.5375 7.05449 43.7792C6.29616 43.0208 5.91699 42.1 5.91699 41.0167V18.4833C5.91699 17.4 6.29616 16.4792 7.05449 15.7208C7.81283 14.9625 8.73366 14.5833 9.81699 14.5833H18.917V10.9C18.917 9.81667 19.2962 8.89583 20.0545 8.1375C20.8128 7.37917 21.7337 7 22.817 7H30.1837C31.267 7 32.1878 7.37917 32.9462 8.1375C33.7045 8.89583 34.0837 9.81667 34.0837 10.9V14.5833H43.1837C44.267 14.5833 45.1878 14.9625 45.9462 15.7208C46.7045 16.4792 47.0837 17.4 47.0837 18.4833V27.6917C46.5781 27.3306 46.0639 27.0236 45.541 26.7708C45.0167 26.5181 44.4475 26.3014 43.8337 26.1208V18.4833C43.8337 18.3028 43.7708 18.1489 43.6452 18.0218C43.518 17.8962 43.3642 17.8333 43.1837 17.8333H9.81699C9.63644 17.8333 9.48332 17.8962 9.35766 18.0218C9.23055 18.1489 9.16699 18.3028 9.16699 18.4833V41.0167C9.16699 41.1972 9.23055 41.3511 9.35766 41.4782C9.48332 41.6038 9.63644 41.6667 9.81699 41.6667H25.5795C25.6878 42.2444 25.8142 42.8042 25.9587 43.3458C26.1031 43.8875 26.2837 44.4111 26.5003 44.9167H9.81699ZM22.167 14.5833H30.8337V10.9C30.8337 10.7194 30.7708 10.5656 30.6452 10.4385C30.518 10.3128 30.3642 10.25 30.1837 10.25H22.817C22.6364 10.25 22.4833 10.3128 22.3577 10.4385C22.2305 10.5656 22.167 10.7194 22.167 10.9V14.5833Z" fill="#1C1B1F"/>
<path d="M43.9042 43.9667L42.55 45.3208L38 40.7708V34H39.95V40.0125L43.9042 43.9667Z" fill="white"/>
<path d="M32.8427 46.6573C34.7392 48.5524 37.0417 49.5 39.75 49.5C42.4583 49.5 44.7608 48.5524 46.6573 46.6573C48.5524 44.7608 49.5 42.4583 49.5 39.75C49.5 37.0417 48.5524 34.7392 46.6573 32.8427C44.7608 30.9476 42.4583 30 39.75 30C37.0417 30 34.7392 30.9476 32.8427 32.8427C30.9476 34.7392 30 37.0417 30 39.75C30 42.4583 30.9476 44.7608 32.8427 46.6573Z" fill="#0050B2"/>
</g>
</svg>
