<?xml version="1.0" standalone="no"?>
<!DOCTYPE svg PUBLIC "-//W3C//DTD SVG 20010904//EN"
 "http://www.w3.org/TR/2001/REC-SVG-20010904/DTD/svg10.dtd">
<svg version="1.0" xmlns="http://www.w3.org/2000/svg"
 width="795.000000pt" height="795.000000pt" viewBox="0 0 795.000000 795.000000"
 preserveAspectRatio="xMidYMid meet">
<metadata>
Created by potrace 1.14, written by Peter Selinger 2001-2017
</metadata>
<g transform="translate(0.000000,795.000000) scale(0.100000,-0.100000)"
fill="#000000" stroke="none">
<path d="M3698 7945 c-2 -2 -34 -6 -73 -9 -38 -3 -88 -8 -110 -11 -22 -3 -58
-8 -80 -10 -22 -2 -51 -6 -65 -9 -14 -3 -41 -8 -60 -10 -19 -3 -44 -7 -55 -9
-11 -3 -40 -8 -65 -13 -51 -9 -59 -11 -62 -14 -2 -1 -16 -4 -33 -6 -16 -3 -37
-7 -45 -11 -8 -3 -27 -7 -42 -9 -14 -1 -36 -7 -47 -14 -12 -6 -21 -8 -21 -5 0
3 -16 -1 -35 -9 -19 -8 -35 -13 -35 -10 0 2 -16 -2 -35 -10 -19 -8 -35 -12
-35 -9 0 3 -6 0 -13 -6 -8 -6 -17 -8 -20 -4 -4 3 -7 1 -7 -5 0 -6 -6 -9 -14
-6 -8 3 -17 0 -21 -5 -3 -6 -11 -9 -16 -6 -5 4 -9 1 -9 -5 0 -6 -4 -9 -9 -6
-5 4 -67 -17 -138 -45 -70 -27 -140 -55 -155 -61 -16 -6 -28 -14 -28 -19 0 -5
-7 -6 -15 -3 -8 4 -15 1 -15 -6 0 -6 -4 -8 -10 -5 -5 3 -10 1 -10 -4 0 -6 -3
-10 -7 -9 -11 3 -147 -64 -155 -76 -4 -6 -8 -8 -8 -3 0 4 -17 -3 -37 -16 -21
-13 -57 -32 -80 -42 -24 -10 -43 -22 -43 -25 0 -8 -52 -34 -62 -32 -5 1 -8 -2
-8 -8 0 -5 -7 -10 -15 -10 -8 0 -15 -4 -15 -10 0 -5 -6 -10 -14 -10 -8 0 -16
-7 -20 -15 -3 -8 -15 -15 -26 -15 -11 0 -20 -4 -20 -10 0 -5 -7 -10 -15 -10
-8 0 -15 -4 -15 -8 0 -5 -12 -15 -27 -23 -31 -15 -45 -25 -73 -51 -10 -9 -28
-19 -40 -23 -12 -4 -19 -9 -16 -12 3 -3 -18 -21 -47 -40 -29 -20 -56 -40 -62
-47 -5 -6 -44 -38 -85 -70 -79 -62 -104 -84 -82 -72 6 4 12 5 12 1 0 -3 -9 -9
-19 -13 -24 -9 -161 -139 -161 -152 0 -6 -4 -9 -8 -8 -8 3 -102 -87 -102 -97
0 -2 -15 -20 -32 -38 -18 -19 -50 -54 -71 -78 -21 -24 -53 -62 -72 -84 -19
-22 -35 -46 -35 -53 0 -7 -4 -10 -10 -7 -5 3 -10 0 -10 -9 0 -8 -3 -16 -7 -18
-9 -3 -92 -111 -108 -139 -5 -10 -26 -42 -46 -71 -20 -29 -36 -57 -35 -61 0
-5 -7 -13 -16 -18 -10 -6 -18 -15 -18 -20 0 -6 -13 -30 -30 -53 -16 -24 -30
-49 -32 -57 -2 -7 -11 -22 -20 -33 -10 -10 -15 -22 -13 -26 3 -5 -1 -10 -9
-13 -8 -3 -17 -19 -21 -36 -4 -17 -11 -31 -16 -31 -5 0 -12 -12 -15 -27 -4
-16 -15 -39 -25 -52 -10 -13 -16 -27 -13 -32 3 -5 1 -9 -5 -9 -6 0 -14 -12
-17 -27 -4 -16 -14 -36 -22 -45 -8 -10 -12 -18 -8 -18 3 0 0 -10 -8 -22 -8
-13 -15 -26 -15 -31 0 -4 -8 -21 -16 -37 -9 -17 -13 -35 -10 -40 3 -6 2 -10
-2 -10 -9 0 -49 -101 -44 -109 1 -2 -2 -7 -8 -10 -6 -4 -12 -19 -13 -34 -1
-15 -6 -27 -9 -27 -4 0 -11 -15 -14 -32 -4 -18 -12 -39 -18 -46 -5 -7 -7 -15
-4 -19 4 -3 2 -15 -4 -25 -11 -20 -47 -142 -55 -185 -2 -12 -9 -34 -14 -49 -6
-15 -8 -29 -6 -32 3 -2 1 -12 -4 -22 -5 -9 -11 -28 -14 -41 -3 -13 -7 -35 -10
-49 -5 -22 -12 -59 -22 -112 -1 -9 -6 -38 -10 -65 -3 -26 -9 -57 -11 -68 -3
-11 -6 -33 -8 -50 -2 -16 -7 -59 -12 -95 -9 -79 -11 -739 -1 -830 6 -59 19
-154 33 -250 3 -19 8 -46 12 -60 3 -14 7 -34 8 -45 1 -11 5 -34 10 -50 5 -17
7 -34 6 -39 -1 -4 3 -14 9 -20 5 -7 8 -15 5 -17 -2 -3 0 -22 6 -43 14 -52 20
-79 21 -93 1 -7 5 -13 10 -13 5 0 7 -4 3 -10 -3 -5 1 -26 10 -47 9 -21 15 -38
14 -38 0 0 5 -20 12 -45 7 -25 14 -49 15 -55 1 -5 12 -35 24 -65 12 -30 23
-63 25 -72 2 -9 9 -26 15 -38 6 -12 13 -29 15 -38 2 -9 11 -35 21 -57 10 -22
17 -43 16 -47 -1 -5 3 -8 9 -8 5 0 7 -4 4 -10 -3 -6 -1 -10 6 -10 7 0 9 -3 6
-6 -3 -4 -1 -16 5 -28 7 -11 13 -23 13 -26 2 -14 90 -185 97 -188 5 -2 6 -8 3
-12 -3 -5 3 -18 13 -28 10 -10 16 -24 14 -30 -2 -7 0 -12 5 -12 5 0 15 -16 23
-35 8 -19 17 -35 22 -35 4 0 8 -5 8 -11 0 -10 18 -40 108 -176 20 -32 40 -66
44 -75 4 -10 12 -18 18 -18 5 0 10 -4 10 -10 0 -5 16 -31 36 -57 20 -27 45
-61 57 -78 12 -16 32 -40 45 -53 12 -12 22 -25 22 -29 0 -11 54 -68 62 -65 5
1 7 -2 3 -8 -3 -5 -1 -10 4 -10 6 0 11 -4 11 -9 0 -5 19 -30 43 -54 23 -25 51
-56 62 -70 10 -14 22 -24 27 -21 4 3 8 0 8 -6 0 -18 53 -70 63 -63 6 3 7 2 4
-4 -7 -11 28 -45 37 -36 3 4 6 0 6 -8 0 -8 8 -21 17 -30 10 -8 59 -51 109 -95
49 -43 108 -92 129 -109 22 -16 47 -38 57 -48 10 -9 20 -17 23 -17 3 0 11 -5
18 -10 43 -36 64 -53 115 -87 31 -21 59 -40 62 -43 9 -9 89 -60 95 -60 2 0 13
-7 22 -15 10 -8 20 -14 23 -13 3 2 16 -7 29 -19 13 -12 27 -20 31 -18 4 3 15
-4 25 -15 10 -11 22 -20 26 -20 5 0 31 -14 60 -30 28 -17 56 -32 62 -33 7 -1
18 -9 25 -17 12 -13 13 -13 6 0 -6 11 -2 10 13 -2 11 -10 25 -18 31 -18 7 0
12 -4 12 -8 0 -8 64 -34 76 -32 4 1 10 -2 13 -7 7 -10 96 -53 141 -68 3 -1 19
-7 35 -14 52 -22 158 -62 205 -77 25 -8 52 -18 60 -21 8 -4 17 -7 20 -8 3 0
39 -11 80 -24 41 -13 82 -25 90 -26 8 -2 62 -15 120 -29 58 -14 119 -28 135
-31 17 -2 41 -7 55 -10 14 -3 41 -8 60 -11 19 -3 44 -7 55 -9 20 -3 57 -8 144
-20 174 -24 461 -33 681 -21 119 6 154 9 253 21 23 3 60 7 82 10 22 2 51 7 65
10 14 3 41 8 60 10 19 2 46 7 60 10 26 6 75 15 100 19 9 1 21 5 28 10 6 4 12
5 12 2 0 -2 15 0 33 5 17 6 41 12 52 14 75 16 116 28 121 36 3 5 9 7 14 4 4
-3 27 2 51 11 24 9 55 18 68 20 14 3 29 8 35 12 6 3 20 8 31 9 11 2 24 8 29
13 6 6 16 10 22 10 7 0 25 5 41 12 15 6 30 12 33 13 3 1 13 5 23 8 9 4 25 10
35 14 9 3 20 5 25 5 4 -1 7 2 7 8 0 6 3 9 8 8 12 -3 82 25 82 34 0 4 3 7 8 7
4 -1 9 0 12 1 3 1 13 3 23 5 10 2 25 9 34 16 8 7 22 14 31 15 8 2 19 9 23 16
5 7 9 10 9 5 0 -6 97 40 110 53 3 3 10 6 16 7 17 3 138 75 145 86 3 5 9 8 13
8 12 -2 66 30 66 39 0 6 3 9 8 8 10 -4 72 35 72 45 0 4 4 6 9 3 5 -3 20 5 35
19 14 13 26 22 26 19 0 -6 62 36 70 47 3 3 19 15 36 25 48 30 214 165 214 175
0 5 5 9 11 9 11 0 23 10 142 122 40 37 75 68 80 68 4 0 7 6 7 13 0 6 16 23 34
37 19 14 32 28 30 32 -2 4 5 10 17 13 11 4 18 9 15 12 -2 3 7 16 22 30 15 14
26 29 24 34 -1 5 2 8 7 7 5 -2 10 2 12 7 2 6 16 21 31 33 16 13 25 29 21 34
-3 7 -1 8 6 4 6 -4 14 0 17 8 3 9 21 32 40 53 19 20 34 41 34 47 0 5 13 21 29
35 15 14 44 50 65 79 20 28 52 74 71 102 19 27 35 54 35 59 0 5 7 12 16 15 8
3 12 10 9 16 -3 5 -3 10 2 10 8 0 46 58 47 73 1 4 6 11 12 15 5 4 23 32 38 62
16 30 31 57 35 60 10 8 56 104 53 108 -2 3 0 8 5 11 8 5 97 176 99 191 1 8 19
50 45 104 12 27 22 55 22 62 0 8 4 14 9 14 4 0 8 8 8 18 0 10 3 22 8 26 4 4 8
12 8 17 1 5 3 11 4 14 1 3 3 8 5 13 1 4 5 15 8 25 7 17 13 36 16 49 1 4 8 23
17 43 8 19 11 35 8 35 -4 0 -2 6 3 13 6 6 14 26 18 42 5 17 10 37 12 45 3 8 5
22 7 30 1 9 5 20 9 26 3 6 11 33 17 60 7 27 14 57 16 67 2 9 6 27 9 40 2 12 8
36 12 52 4 17 7 32 8 35 5 23 19 99 21 115 1 11 5 36 9 55 7 35 13 76 20 140
2 19 4 35 5 35 14 0 21 708 7 825 -4 36 -9 81 -12 100 -2 19 -7 55 -10 80 -6
56 -8 68 -39 230 -14 69 -18 88 -27 120 -6 19 -13 51 -16 70 -3 19 -9 36 -13
38 -4 2 -6 12 -3 22 3 12 0 20 -6 20 -7 0 -10 4 -6 10 3 5 -1 25 -9 45 -8 19
-13 35 -11 35 2 0 -12 44 -31 98 -19 53 -37 104 -39 112 -2 8 -4 16 -5 18 -2
1 -3 5 -5 10 -2 7 -20 54 -32 82 -3 8 -7 17 -8 20 -1 3 -7 18 -13 33 -7 16
-12 33 -12 38 0 5 -4 9 -8 9 -5 0 -9 6 -9 13 0 21 -165 347 -175 347 -5 0 -7
4 -3 9 3 5 1 12 -4 15 -5 4 -19 26 -31 51 -12 25 -26 45 -31 45 -6 0 -8 4 -5
9 5 8 -28 58 -47 72 -5 3 -7 8 -6 10 3 4 -31 61 -42 69 -3 3 -14 20 -23 38 -9
17 -20 32 -24 32 -4 0 -13 14 -20 30 -8 17 -17 28 -21 26 -4 -3 -12 7 -19 22
-6 15 -25 41 -41 59 -16 18 -31 36 -33 42 -4 11 -77 96 -134 157 -23 24 -39
44 -36 44 3 0 -55 61 -129 135 -74 74 -140 135 -146 135 -7 0 -13 7 -13 15 0
8 -3 15 -8 15 -4 0 -18 10 -32 23 -60 55 -229 187 -240 187 -6 0 -8 5 -5 10 3
6 0 10 -8 10 -7 0 -22 8 -33 18 -36 33 -94 73 -94 66 0 -4 -7 1 -15 12 -8 10
-15 15 -15 9 0 -7 -3 -7 -8 0 -11 15 -102 77 -102 70 0 -4 -7 0 -15 7 -33 29
-45 38 -45 33 0 -4 -12 3 -26 14 -15 11 -30 18 -35 15 -5 -3 -9 -1 -9 4 0 5
-12 16 -27 24 -16 7 -48 24 -73 38 -25 13 -51 25 -59 26 -8 2 -17 7 -20 11 -5
8 -95 55 -111 58 -3 1 -26 11 -52 23 -67 32 -216 91 -236 94 -9 2 -19 6 -22
10 -3 4 -15 9 -25 11 -11 2 -31 9 -45 14 -14 6 -59 21 -100 34 -88 26 -83 25
-160 44 -8 2 -15 4 -15 5 0 1 -7 3 -15 5 -74 19 -95 23 -102 19 -4 -3 -8 -1
-8 5 0 5 -8 10 -17 9 -10 0 -28 3 -40 6 -34 9 -54 13 -103 21 -25 4 -54 9 -65
11 -11 3 -37 7 -59 9 -21 2 -46 6 -55 9 -9 3 -47 8 -86 11 -38 4 -83 9 -100
12 -35 5 -622 13 -627 8z"/>
</g>
</svg>
