<svg width="86" height="65" viewBox="0 0 86 65" fill="none" xmlns="http://www.w3.org/2000/svg">
<path d="M57.2297 12.9493L57.2553 12.4499L57.7547 12.4756L65.0372 12.8508C59.556 6.72417 51.6484 3.13972 43.3638 3.13972C34.1259 3.13972 25.3514 7.6002 19.8947 15.071L19.5997 15.475L19.1959 15.1798L17.8726 14.2125L17.4692 13.9176L17.7639 13.514C23.7151 5.36481 33.2856 0.500003 43.3635 0.500002C52.2951 0.500001 60.8158 4.32175 66.7827 10.8592L67.1348 4.01101L67.1605 3.51201L67.6595 3.53733L69.2968 3.62042L69.7964 3.64577L69.7708 4.14535L69.2464 14.3851C69.2464 14.3852 69.2464 14.3852 69.2464 14.3853C69.2464 14.3853 69.2464 14.3854 69.2464 14.3854C69.2093 15.1161 68.5851 15.6727 67.8597 15.636L67.8593 15.6359L57.6192 15.11L57.1198 15.0843L57.1455 14.585L57.2297 12.9493Z" fill="white" stroke="white"/>
<path d="M1.23146 32.1819C1.23146 25.6911 6.51048 20.4121 13.0013 20.4121C19.4919 20.4121 24.7734 25.691 24.7734 32.1819C24.7734 38.6736 19.4936 43.9517 13.0028 43.9517C6.51135 43.9517 1.23146 38.6736 1.23146 32.1819ZM22.1343 32.1819C22.1343 27.1483 18.0377 23.0516 13.0026 23.0516C7.96821 23.0516 3.87235 27.1482 3.87235 32.1819C3.87235 37.2156 7.96897 41.3122 13.0026 41.3122C18.0364 41.3122 22.1343 37.2155 22.1343 32.1819Z" fill="#127BFB" stroke="#127BFB"/>
<path d="M61.9572 32.1819C61.9572 25.6911 67.2371 20.4121 73.7271 20.4121C80.2161 20.4121 85.5 25.6909 85.5 32.1819C85.5 38.6736 80.2202 43.9517 73.7302 43.9517C67.2412 43.9517 61.9572 38.6738 61.9572 32.1819ZM82.8601 32.1819C82.8601 27.1483 78.7621 23.0516 73.7298 23.0516C68.6954 23.0516 64.5995 27.1482 64.5995 32.1819C64.5995 37.2157 68.6946 41.3122 73.7298 41.3122C78.7642 41.3122 82.8601 37.2156 82.8601 32.1819Z" fill="white" stroke="white"/>
<path d="M16.9582 60.2181L17.4842 49.9784C17.5212 49.2453 18.1453 48.6958 18.8667 48.7274L18.8705 48.7276L29.112 49.2535L29.6112 49.2791L29.5857 49.7784L29.5018 51.4157L29.4762 51.9151L28.9768 51.8895L21.6973 51.5156C27.1773 57.6401 35.0868 61.2247 43.3669 61.2247C52.6048 61.2247 61.3808 56.765 66.8379 49.2947L67.133 48.8909L67.5368 49.186L68.86 50.1533L69.2637 50.4484L68.9686 50.8521C63.013 58.9978 53.4449 63.8643 43.3672 63.8643C34.4386 63.8643 25.9131 60.0419 19.9465 53.5048L19.5942 60.3525L19.5685 60.8515L19.0695 60.8262L17.4322 60.7431L16.9326 60.7177L16.9582 60.2181Z" fill="#127BFB" stroke="#127BFB"/>
</svg>
