<svg width="81" height="79" viewBox="0 0 81 79" fill="none" xmlns="http://www.w3.org/2000/svg">
<path d="M29.8546 13.2052C25.7238 15.1798 22.7375 18.9544 21.7663 23.4291L21.7663 23.4291L21.7655 23.4333C21.5398 24.5666 20.571 25.4002 19.4165 25.454C14.3146 25.6625 9.68182 28.488 7.16002 32.9283L7.16 32.9284C4.63897 37.3689 4.58535 42.7954 7.02015 47.2844C9.45418 51.7732 14.0307 54.6883 19.1281 54.9972C20.4469 55.0841 21.473 56.1772 21.4761 57.4993C21.476 58.2917 21.1009 59.0379 20.4654 59.5122C19.8288 59.9865 19.0061 60.1327 18.2466 59.9062L18.2232 59.8992L18.1988 59.8969C11.7175 59.283 5.9512 55.5243 2.77254 49.8426C-0.40602 44.1609 -0.59141 37.2799 2.27721 31.436L2.27723 31.436C5.14498 25.5909 10.7012 21.5276 17.1396 20.566L17.2943 20.5429L17.3412 20.3936C19.0979 14.7996 23.2358 10.268 28.647 8.01257C34.0591 5.75706 40.1903 6.00805 45.3999 8.69836L45.5984 8.80085L45.7225 8.61513C48.7343 4.10801 53.5433 1.11831 58.9186 0.410787C64.2928 -0.296001 69.7115 1.34875 73.7867 4.92383C77.8619 8.49892 80.1987 13.6574 80.197 19.0784L80.197 19.1795C80.165 23.8606 78.3739 28.3603 75.1772 31.7841L75.064 31.9054L75.1318 32.0568C77.7365 37.8777 77.3768 44.5978 74.165 50.1078L74.381 50.2337L74.165 50.1078C70.954 55.6179 65.2842 59.2431 58.9347 59.8452L58.9103 59.8475L58.8869 59.8545C58.1272 60.081 57.3045 59.9348 56.668 59.4604L56.668 59.4604C56.0327 58.987 55.6575 58.2409 55.6574 57.4476C55.6606 56.1253 56.687 55.032 58.006 54.9455L58.0069 54.9454C62.1132 54.6614 65.9151 52.6804 68.5003 49.4785C71.0865 46.2765 72.223 42.1431 71.6372 38.0695C71.0512 33.9958 68.7957 30.3495 65.4127 28.0062C62.0294 25.6628 57.8231 24.8342 53.8039 25.7182L53.8037 25.7183C53.1349 25.8662 52.4356 25.7356 51.8662 25.3565L51.8659 25.3563C51.2959 24.9782 50.9058 24.3829 50.7846 23.7094L50.7847 23.7094L50.7838 23.7053C49.8971 19.2131 46.9839 15.3823 42.8909 13.3292C38.7979 11.2753 33.9854 11.2295 29.8546 13.2052ZM29.8546 13.2052L29.9624 13.4307L29.8546 13.2052ZM75.1442 19.0779C75.145 15.0812 73.4143 11.2811 70.3997 8.65748L70.3996 8.65743C67.384 6.03467 63.3811 4.84567 59.4229 5.39877C55.4651 5.95184 51.9403 8.19254 49.7605 11.5419L49.6464 11.7172L49.7988 11.8605C52.2377 14.1525 54.055 17.0271 55.078 20.2141L55.1394 20.4051L55.3391 20.3866C55.891 20.3354 56.4428 20.3099 56.9946 20.3099H56.9948C62.8022 20.3057 68.3181 22.8514 72.0817 27.2735L72.5221 27.7909V27.1803C74.2357 24.8272 75.1546 21.9898 75.1442 19.0779ZM75.1442 19.0779C75.1442 19.0781 75.1442 19.0782 75.1442 19.0784L74.8942 19.0784M75.1442 19.0779C75.1442 19.0778 75.1442 19.0776 75.1442 19.0775L74.8942 19.0784M74.8942 19.0784C74.8951 15.1538 73.1957 11.4223 70.2355 8.84607L74.8942 19.0784Z" fill="white" stroke="black" stroke-width="0.5"/>
<path d="M34.2643 43.0345L32.6034 47.2193L32.5986 47.2184C32.0863 48.5168 30.618 49.1534 29.3205 48.6404L29.3203 48.6403C28.022 48.128 27.3854 46.6599 27.8982 45.3624C27.8983 45.3623 27.8983 45.3622 27.8983 45.3621L29.5637 41.1789L29.5639 41.1783C30.0771 39.8798 31.5446 39.2432 32.8431 39.7563L32.8431 39.7563C34.1407 40.2686 34.7774 41.7368 34.2643 43.0345Z" fill="#127BFB" stroke="black" stroke-width="0.5"/>
<path d="M55.9992 49.3226L55.9122 49.5411L55.9291 49.5491C55.3473 50.7021 53.971 51.2415 52.7467 50.7574L52.7466 50.7574C51.4482 50.2451 50.8115 48.7768 51.3246 47.4792L51.325 47.4783L52.9643 43.2823C52.9643 43.2822 52.9644 43.282 52.9644 43.2819C53.4778 41.9836 54.9451 41.3472 56.2434 41.8603L56.2435 41.8603C57.5276 42.3673 58.1645 43.8107 57.6809 45.0983L57.6648 45.1388L55.9992 49.3226Z" fill="#127BFB" stroke="black" stroke-width="0.5"/>
<path d="M40.3078 51.5202L40.3099 51.5211C40.9347 51.7626 41.4371 52.2424 41.7061 52.8558L41.7061 52.8559C41.9696 53.456 41.9878 54.1345 41.7578 54.7475L41.7425 54.786L40.0769 58.9698L40.0767 58.9704C39.5644 60.2679 38.0971 60.9046 36.7985 60.3924C35.5186 59.8863 34.8817 58.4517 35.356 57.1666L35.377 57.1139L37.0426 52.9301L37.0428 52.9295C37.2881 52.3092 37.7701 51.8129 38.383 51.5477C38.9957 51.2835 39.6879 51.274 40.3078 51.5202Z" fill="#127BFB" stroke="black" stroke-width="0.5"/>
<path d="M49.9667 57.9648L49.9694 57.9658C50.5937 58.2065 51.0962 58.6869 51.3653 59.2996C51.6342 59.913 51.6477 60.6073 51.4025 61.2301C51.4024 61.2303 51.4023 61.2304 51.4023 61.2306L49.737 65.4135L49.7368 65.4141C49.2236 66.7127 47.7561 67.3493 46.4576 66.8362L46.4576 66.8362C45.1779 66.3309 44.5409 64.8958 45.0151 63.6115L45.0362 63.5585L46.7018 59.3748L46.702 59.3742C46.9474 58.7537 47.4295 58.2567 48.0421 57.9924C48.655 57.7281 49.3471 57.7179 49.9667 57.9648Z" fill="#127BFB" stroke="black" stroke-width="0.5"/>
<path d="M35.3889 69.188L35.3863 69.187C34.7667 68.9401 34.0746 68.9502 33.4618 69.2145L35.3889 69.188ZM35.3889 69.188C36.0133 69.4286 36.5158 69.9091 36.7848 70.5218C37.0538 71.1354 37.0672 71.8299 36.8218 72.4528L36.8044 72.4969V72.4973L35.1565 76.6366L35.1563 76.6371C34.6432 77.9348 33.1756 78.5714 31.8772 78.0583L31.8771 78.0583C30.5796 77.5461 29.943 76.0788 30.4559 74.7804C30.4559 74.7803 30.4559 74.7802 30.456 74.7801L32.1213 70.5969L32.1215 70.5964M35.3889 69.188L32.1215 70.5964M32.1215 70.5964C32.3669 69.976 32.8497 69.4789 33.4617 69.2146L32.1215 70.5964Z" fill="#127BFB" stroke="black" stroke-width="0.5"/>
<path d="M27.0072 60.058L27.0048 60.0571C26.3851 59.8102 25.6922 59.8204 25.0804 60.0846L27.0072 60.058ZM27.0072 60.058C27.6318 60.2995 28.1334 60.7792 28.4024 61.3927L28.4025 61.3928C28.6662 61.9936 28.6842 62.673 28.4542 63.2867L28.4398 63.3229L26.7742 67.5067L26.7739 67.5074C26.2617 68.8049 24.7933 69.4416 23.4956 68.9293C22.1972 68.4162 21.5607 66.9488 22.0735 65.6505C22.0736 65.6504 22.0736 65.6503 22.0736 65.6502L23.739 61.467L23.7391 61.4668M27.0072 60.058L23.7391 61.4668M23.7391 61.4668C23.9853 60.8462 24.4674 60.3498 25.0803 60.0846L23.7391 61.4668Z" fill="#127BFB" stroke="black" stroke-width="0.5"/>
</svg>
