<svg width="73" height="73" viewBox="0 0 73 73" fill="none" xmlns="http://www.w3.org/2000/svg">
<path d="M39.0872 34.1916H38.4752V22.7943H39.0872C41.6114 22.7943 43.8295 24.4771 44.5183 27.0014C44.8241 28.1486 46.048 28.8373 47.1958 28.5311C48.3429 28.2254 49.0317 27.0014 48.7255 25.8536C47.5783 21.4934 43.6006 18.5102 39.0877 18.5102H38.4757V12.3908C38.4757 11.1668 37.4812 10.249 36.334 10.249C35.11 10.249 34.1922 11.2436 34.1922 12.3908V18.5102H33.5802C30.9028 18.5102 28.3791 19.5811 26.543 21.417C24.6308 23.3293 23.6362 25.7773 23.6362 28.4542C23.6362 33.9616 28.1491 38.4744 33.6564 38.4744H34.2684V49.795H33.6564C31.1322 49.795 28.9141 48.1122 28.2253 45.7409C27.9959 44.7464 27.1544 43.9818 26.0835 43.9818C24.8596 43.9818 23.9418 44.9763 23.9418 46.1235C23.9418 46.353 23.9418 46.5061 24.0181 46.7355C25.2421 51.0958 29.143 54.079 33.6558 54.079H34.2678V60.1984C34.2678 61.4224 35.2624 62.3401 36.4096 62.3401C37.6336 62.3401 38.5513 61.3456 38.5513 60.1984V54.079H39.1633C44.6707 54.079 49.1835 49.5661 49.1835 44.0587C49.1835 41.3813 48.1127 38.8576 46.2767 37.0216C44.2881 35.186 41.7645 34.1915 39.087 34.1915L39.0872 34.1916ZM33.5798 34.1916C30.4435 34.1916 27.9193 31.6674 27.9193 28.5311C27.9193 27.0014 28.5313 25.5479 29.5259 24.5534C30.5968 23.4826 32.0501 22.8706 33.5036 22.8706H34.1156V34.1912L33.5798 34.1916ZM39.0872 49.8723H38.4752V38.475H39.0872C40.6169 38.475 41.994 39.087 43.0649 40.1578C44.1357 41.2286 44.6714 42.6058 44.6714 44.1354C44.7477 47.2712 42.2235 49.8723 39.0872 49.8723Z" fill="#2185FF"/>
<path d="M36.3333 0C16.2926 0 0 16.2926 0 36.3333C0 56.374 16.2926 72.6666 36.3333 72.6666C56.374 72.6666 72.6666 56.374 72.6666 36.3333C72.6666 16.2926 56.374 0 36.3333 0ZM4.36 36.3333C4.36 28.3016 7.34315 20.9586 12.3148 15.2982L17.746 20.7294C18.2048 21.1882 18.7405 21.3414 19.2756 21.3414C19.8113 21.3414 20.3465 21.1119 20.8053 20.7294C21.6468 19.888 21.6468 18.5114 20.8053 17.67L15.3742 12.2389C21.0347 7.34343 28.3775 4.28405 36.4093 4.28405C54.0787 4.28405 68.3826 18.6644 68.3826 36.2574C68.3826 44.2891 65.3994 51.6321 60.4278 57.2924L54.9966 51.8613C54.1552 51.0199 52.7786 51.0199 51.9372 51.8613C51.0958 52.7027 51.0958 54.0793 51.9372 54.9207L57.3684 60.3518C51.7079 65.2473 44.365 68.3066 36.3333 68.3066C18.6638 68.3066 4.36 54.0028 4.36 36.3333Z" fill="white"/>
</svg>
