<svg width="70" height="77" viewBox="0 0 70 77" fill="none" xmlns="http://www.w3.org/2000/svg">
<path d="M56.1342 58.4032C53.5664 61.1297 50.4352 63.4147 46.7905 65.0311C42.9511 66.734 38.9426 67.5373 34.9994 67.5373C26.1159 67.535 17.5703 63.441 12.0386 56.3069C12.9922 55.475 13.5374 54.2765 13.5374 53.0323C13.5374 52.4456 13.4168 51.8493 13.1631 51.2829C12.4401 49.666 10.8443 48.7118 9.17959 48.715C8.57666 48.715 7.9649 48.8401 7.38606 49.0969C5.75421 49.8183 4.77891 51.4099 4.77891 53.0795C4.77891 53.6671 4.90041 54.2644 5.15499 54.833C5.8762 56.443 7.46965 57.3991 9.13615 57.3976C9.43507 57.3976 9.73677 57.3682 10.0366 57.3047C15.9776 65.1915 25.3048 69.7243 35.0011 69.7231C39.2433 69.7231 43.5599 68.8577 47.685 67.0297C51.7192 65.2385 55.17 62.6881 57.9754 59.6399C57.2676 59.4034 56.6331 58.9801 56.1342 58.4032ZM7.15626 53.9424C7.02921 53.6576 6.97053 53.3673 6.97053 53.0783C6.97238 52.2506 7.45287 51.4542 8.27665 51.0921C8.57651 50.9586 8.88143 50.897 9.17943 50.897C10.0171 50.9002 10.8038 51.3709 11.1596 52.1683C11.2867 52.4503 11.3439 52.7402 11.3439 53.0314C11.3439 53.8541 10.8588 54.6566 10.0327 55.0223C9.74121 55.1525 9.4372 55.2133 9.13551 55.2133C8.29788 55.211 7.50875 54.7375 7.15676 53.9438M5.8659 46.3115C5.8659 46.3115 6.558 46.0516 6.91097 45.9798C6.26554 43.5477 5.95275 41.0851 5.95275 38.6456C5.9546 27.5753 12.3702 17.0126 23.1808 12.2221C25.7269 11.0925 28.3461 10.3831 30.9713 10.0186C31.722 11.5398 33.2605 12.4434 34.878 12.4416C35.4754 12.4416 36.0867 12.3196 36.6684 12.0629C38.2983 11.3332 39.2774 9.74528 39.2774 8.07422C39.2774 7.4908 39.1577 6.89445 38.905 6.32577C38.1815 4.71219 36.5871 3.7574 34.922 3.75928C34.3195 3.75928 33.7082 3.88535 33.1294 4.14163C31.5789 4.82628 30.6294 6.29822 30.5384 7.8754C27.7566 8.27294 24.9818 9.03212 22.2919 10.227C10.6648 15.3798 3.75809 26.741 3.75928 38.6447C3.75928 41.3883 4.13351 44.1619 4.89445 46.8954C5.19291 46.6713 5.50969 46.4693 5.8659 46.3115ZM32.899 8.98793C32.771 8.70403 32.7114 8.41463 32.7114 8.12245C32.7133 7.29656 33.1947 6.49921 34.0166 6.13796C34.3164 6.00407 34.6214 5.94379 34.9203 5.94379C35.7565 5.94563 36.5452 6.41679 36.9014 7.21414C37.0261 7.49389 37.083 7.78421 37.083 8.07455C37.083 8.89907 36.5974 9.7038 35.7737 10.0687C35.4821 10.1962 35.1795 10.2569 34.8774 10.2569C34.0388 10.2551 33.2492 9.78068 32.8981 8.98879M64.1076 49.7754C65.4747 46.2385 66.206 42.4563 66.2051 38.613C66.2051 34.3874 65.336 30.0908 63.5004 25.9849C59.3853 16.7854 51.337 10.5688 42.212 8.39678C42.2864 9.14722 42.1552 9.88751 41.8419 10.5547C50.2705 12.6049 57.6944 18.3641 61.4958 26.8719C63.2057 30.6959 64.0138 34.6864 64.0138 38.6135C64.0128 42.1858 63.3332 45.7006 62.0608 48.989C61.8963 48.9711 61.7319 48.9545 61.5651 48.9545C60.9635 48.9545 60.3523 49.0796 59.7729 49.3368C58.1389 50.0574 57.1621 51.648 57.1639 53.3173C57.1639 53.9062 57.2863 54.5053 57.54 55.074H57.5409C58.263 56.6807 59.8543 57.6368 61.5221 57.6354C62.1195 57.6354 62.7298 57.5144 63.3124 57.2562C64.9424 56.5288 65.9223 54.941 65.9223 53.2693C65.9223 52.6859 65.8035 52.0878 65.5504 51.5209C65.2233 50.7925 64.7137 50.2069 64.1076 49.7754ZM59.5438 54.1818C59.4149 53.8965 59.3553 53.6067 59.3553 53.3163C59.3571 52.4872 59.8385 51.6922 60.6614 51.3318C60.9612 51.1984 61.2671 51.1358 61.5642 51.1358C62.4036 51.1391 63.1909 51.6088 63.5453 52.4076C63.6709 52.6892 63.7287 52.9777 63.7287 53.268C63.7287 54.0925 63.2436 54.8963 62.4194 55.2607C62.1269 55.3891 61.822 55.4489 61.5212 55.4489C60.6836 55.4471 59.893 54.9718 59.5425 54.1827" fill="#127BFB"/>
<path d="M7.15626 53.9424C7.02921 53.6576 6.97053 53.3673 6.97053 53.0783C6.97238 52.2506 7.45287 51.4542 8.27665 51.0921C8.57651 50.9586 8.88143 50.897 9.17943 50.897C10.0171 50.9002 10.8038 51.3709 11.1596 52.1683C11.2867 52.4503 11.3439 52.7402 11.3439 53.0314C11.3439 53.8541 10.8588 54.6566 10.0327 55.0223C9.74121 55.1525 9.4372 55.2133 9.13551 55.2133C8.29788 55.211 7.50875 54.7375 7.15676 53.9438M32.899 8.98793C32.771 8.70403 32.7114 8.41463 32.7114 8.12245C32.7133 7.29656 33.1947 6.49921 34.0166 6.13796C34.3164 6.00407 34.6214 5.94379 34.9203 5.94379C35.7565 5.94563 36.5452 6.41679 36.9014 7.21414C37.0262 7.49389 37.083 7.78421 37.083 8.07455C37.083 8.89907 36.5974 9.7038 35.7737 10.0687C35.4821 10.1962 35.1795 10.2569 34.8774 10.2569C34.0388 10.2551 33.2492 9.78068 32.8981 8.98879M59.5438 54.1818C59.4149 53.8965 59.3553 53.6067 59.3553 53.3163C59.3571 52.4872 59.8385 51.6922 60.6614 51.3318C60.9612 51.1984 61.2671 51.1358 61.5642 51.1358C62.4036 51.1391 63.1909 51.6088 63.5453 52.4076C63.6709 52.6892 63.7287 52.9777 63.7287 53.268C63.7287 54.0925 63.2436 54.8963 62.4194 55.2607C62.1269 55.3891 61.822 55.4489 61.5212 55.4489C60.6836 55.4471 59.893 54.9718 59.5425 54.1827M56.1342 58.4032C53.5664 61.1297 50.4352 63.4147 46.7905 65.0311C42.9511 66.734 38.9426 67.5373 34.9994 67.5373C26.1159 67.535 17.5703 63.441 12.0386 56.3069C12.9922 55.475 13.5374 54.2765 13.5374 53.0323C13.5374 52.4456 13.4168 51.8493 13.1631 51.2829C12.4401 49.666 10.8443 48.7118 9.17959 48.715C8.57666 48.715 7.9649 48.8401 7.38606 49.0969C5.75421 49.8183 4.77891 51.4099 4.77891 53.0795C4.77891 53.6671 4.90041 54.2644 5.15499 54.833C5.8762 56.443 7.46965 57.3991 9.13615 57.3976C9.43507 57.3976 9.73677 57.3682 10.0366 57.3047C15.9776 65.1915 25.3048 69.7243 35.0011 69.7231C39.2433 69.7231 43.5599 68.8577 47.685 67.0297C51.7192 65.2385 55.17 62.6881 57.9754 59.6399C57.2676 59.4034 56.6331 58.9801 56.1342 58.4032ZM5.8659 46.3115C5.8659 46.3115 6.558 46.0516 6.91097 45.9798C6.26554 43.5477 5.95275 41.0851 5.95275 38.6456C5.9546 27.5754 12.3702 17.0126 23.1808 12.2221C25.7269 11.0925 28.3461 10.3831 30.9713 10.0186C31.722 11.5398 33.2605 12.4434 34.878 12.4416C35.4754 12.4416 36.0867 12.3196 36.6684 12.0629C38.2983 11.3332 39.2774 9.74528 39.2774 8.07422C39.2774 7.4908 39.1577 6.89445 38.905 6.32577C38.1815 4.71219 36.5871 3.7574 34.922 3.75928C34.3195 3.75928 33.7082 3.88535 33.1294 4.14163C31.5789 4.82628 30.6294 6.29822 30.5384 7.8754C27.7566 8.27294 24.9818 9.03212 22.2919 10.227C10.6648 15.3798 3.75809 26.741 3.75928 38.6447C3.75928 41.3883 4.13351 44.1619 4.89445 46.8954C5.19291 46.6713 5.50969 46.4693 5.8659 46.3115ZM64.1076 49.7754C65.4747 46.2385 66.206 42.4563 66.2051 38.613C66.2051 34.3874 65.336 30.0908 63.5004 25.9849C59.3853 16.7854 51.337 10.5688 42.212 8.39678C42.2864 9.14722 42.1552 9.88751 41.8419 10.5547C50.2705 12.6049 57.6944 18.3641 61.4958 26.8719C63.2057 30.6959 64.0138 34.6864 64.0138 38.6135C64.0128 42.1858 63.3332 45.7006 62.0608 48.989C61.8963 48.9711 61.7319 48.9545 61.5651 48.9545C60.9635 48.9545 60.3523 49.0796 59.7729 49.3368C58.1389 50.0574 57.1621 51.648 57.1639 53.3173C57.1639 53.9062 57.2863 54.5053 57.54 55.074H57.5409C58.263 56.6807 59.8543 57.6368 61.5221 57.6354C62.1195 57.6354 62.7298 57.5144 63.3124 57.2562C64.9424 56.5288 65.9223 54.941 65.9223 53.2693C65.9223 52.6859 65.8035 52.0878 65.5504 51.5209C65.2233 50.7925 64.7137 50.2069 64.1076 49.7754Z" stroke="#127BFB" stroke-width="2"/>
<path d="M27.3855 8.15663C27.3855 4.2094 30.5948 1 34.5413 1C38.4869 1 41.6987 4.209 41.6987 8.15663C41.6987 12.1043 38.4894 15.3133 34.543 15.3133C30.5973 15.3133 27.3855 12.1047 27.3855 8.15663Z" fill="black" stroke="white" stroke-width="2"/>
<path d="M1.00022 53.0121C1.00022 49.0649 4.2095 45.8555 8.156 45.8555C12.1017 45.8555 15.3135 49.0645 15.3135 53.0121C15.3135 56.9598 12.1042 60.1687 8.1577 60.1687C4.21208 60.1687 1.00022 56.9602 1.00022 53.0121Z" fill="black" stroke="white" stroke-width="2"/>
<path d="M53.7712 53.8915C53.7712 49.9443 56.9805 46.7349 60.927 46.7349C64.8727 46.7349 68.0845 49.9439 68.0845 53.8915C68.0845 57.8392 64.8752 61.0481 60.9287 61.0481C56.9831 61.0481 53.7712 57.8396 53.7712 53.8915Z" fill="black" stroke="white" stroke-width="2"/>
<path d="M54.6506 24.8676C54.6506 20.9203 57.8599 17.7109 61.8064 17.7109C65.7521 17.7109 68.9639 20.9199 68.9639 24.8676C68.9639 28.8153 65.7545 32.0242 61.8081 32.0242C57.8625 32.0242 54.6506 28.8157 54.6506 24.8676Z" fill="black" stroke="white" stroke-width="2"/>
<path d="M1.00022 24.8676C1.00022 20.9203 4.2095 17.7109 8.156 17.7109C12.1017 17.7109 15.3135 20.9199 15.3135 24.8676C15.3135 28.8153 12.1042 32.0242 8.1577 32.0242C4.21208 32.0242 1.00022 28.8157 1.00022 24.8676Z" fill="black" stroke="white" stroke-width="2"/>
<path d="M27.3855 68.8432C27.3855 64.8959 30.5948 61.6865 34.5413 61.6865C38.4869 61.6865 41.6987 64.8955 41.6987 68.8431C41.6987 72.7908 38.4894 75.9998 34.543 75.9998C30.5973 75.9998 27.3855 72.7913 27.3855 68.8432Z" fill="black" stroke="white" stroke-width="2"/>
</svg>
