<svg width="76" height="73" viewBox="0 0 76 73" fill="none" xmlns="http://www.w3.org/2000/svg">
<path d="M37.9985 27.1425C45.4173 27.1425 51.5698 20.99 51.5698 13.5713C51.5698 6.15251 45.4173 0 37.9985 0C30.5798 0 24.4272 6.15251 24.4272 13.5713C24.4272 20.9906 30.5798 27.1425 37.9985 27.1425ZM37.9985 3.62004C43.427 3.62004 47.951 8.144 47.951 13.5725C47.951 19.0004 43.427 23.5243 37.9985 23.5243C32.57 23.5243 28.046 19.0004 28.046 13.5719C28.046 8.14338 32.57 3.62004 37.9985 3.62004Z" fill="#127BFB"/>
<path d="M59.7128 32.5712C64.7796 32.5712 68.7601 28.5901 68.7601 23.5239C68.7601 18.4571 64.779 14.4766 59.7128 14.4766C54.646 14.4766 50.6655 18.4577 50.6655 23.5239C50.6655 28.5907 54.646 32.5712 59.7128 32.5712ZM59.7128 18.0954C62.7888 18.0954 65.1413 20.4479 65.1413 23.5239C65.1413 26.5998 62.7888 28.9524 59.7128 28.9524C56.6369 28.9524 54.2843 26.5998 54.2843 23.5239C54.2843 20.4479 56.6369 18.0954 59.7128 18.0954Z" fill="white"/>
<path d="M16.2846 32.5712C21.3514 32.5712 25.3319 28.5901 25.3319 23.5239C25.3319 18.4571 21.3508 14.4766 16.2846 14.4766C11.2178 14.4766 7.2373 18.4577 7.2373 23.5239C7.2373 28.5907 11.2178 32.5712 16.2846 32.5712ZM16.2846 18.0954C19.3606 18.0954 21.7131 20.4479 21.7131 23.5239C21.7131 26.5998 19.3606 28.9524 16.2846 28.9524C13.2087 28.9524 10.8561 26.5998 10.8561 23.5239C10.8561 20.4479 13.2087 18.0954 16.2846 18.0954Z" fill="white"/>
<path d="M71.2939 39.8096C68.218 36.7337 64.0557 35.1051 59.7129 35.1051C57.9032 35.1051 56.2747 35.4668 54.6461 36.0097C50.1228 31.3052 44.332 28.9526 37.9992 28.9526C31.6665 28.9526 25.8754 31.3052 21.3523 35.8285C19.7238 35.2857 17.9141 34.924 16.2855 34.924C11.9427 34.924 7.78106 36.5525 4.7045 39.6285C1.62855 42.7044 0 46.8667 0 51.2095V66.9522C0 68.0379 0.724008 68.7619 1.80971 68.7619H74.1903C75.276 68.7619 76 68.0379 76 66.9522V51.2095C75.9994 46.8667 74.3708 42.8856 71.2949 39.8096H71.2939ZM3.61756 51.2095C3.61756 47.7712 4.88441 44.6953 7.23635 42.3427C9.58891 39.9902 12.846 38.5428 16.2837 38.5428C17.1882 38.5428 18.0934 38.7239 18.8167 38.7239C16.1031 42.8856 14.4746 47.5907 14.4746 52.4764V65.1431L3.61756 65.1425V51.2095ZM18.094 52.4764C18.094 47.229 20.2654 42.1622 23.8842 38.3623C27.6841 34.5623 32.5698 32.5721 37.9983 32.5721C43.4268 32.5721 48.3124 34.5623 52.1124 38.3623C55.7312 41.981 57.9026 47.229 57.9026 52.4764V65.1431L18.0946 65.1425L18.094 52.4764ZM72.379 65.1425H61.522V52.4757C61.522 47.5901 59.8935 42.8856 57.1792 38.9045C58.0838 38.7233 58.8078 38.7233 59.7123 38.7233C63.1506 38.7233 66.2265 39.9902 68.7596 42.5233C71.2927 45.0564 72.3784 48.1329 72.3784 51.39L72.379 65.1425Z" fill="white"/>
<path d="M14.75 53.9786V53.9787L14.7508 69.9994L14.7508 71.2493L16.0007 71.2493L60 71.25L61.25 71.25V70V53.9786C61.25 47.6193 58.7574 41.279 54.4957 36.8277C50.058 32.1925 44.2928 29.75 38 29.75C31.7071 29.75 25.942 32.1925 21.5043 36.8277L21.5043 36.8278L21.4725 36.8609L21.462 36.8719L21.4517 36.8832L21.4207 36.9172L21.4207 36.9172C17.287 41.4509 14.75 47.5498 14.75 53.9786ZM20.9313 53.9786C20.9314 49.2664 22.7988 44.6973 25.9237 41.2645C29.1843 37.8644 33.351 36.0951 38 36.0951C42.654 36.0951 46.8246 37.8682 50.0868 41.2755C53.1862 44.5128 55.0687 49.2443 55.0687 53.9786V64.9048L20.9319 64.9043L20.9313 53.9786C20.9313 53.9786 20.9313 53.9786 20.9313 53.9786Z" fill="#127BFB" stroke="black" stroke-width="2.5"/>
</svg>
