<svg width="50" height="62" viewBox="0 0 50 62" fill="none" xmlns="http://www.w3.org/2000/svg">
<path d="M45.8306 28.4194C45.3907 27.9293 44.8532 27.5365 44.2527 27.2663C43.6521 26.996 43.0017 26.8542 42.3431 26.85H31.9V23.75C31.8949 21.6961 31.0767 19.7279 29.6244 18.2756C28.1721 16.8233 26.2039 16.0051 24.15 16C23.862 16.0023 23.5801 16.0829 23.3344 16.233C23.0887 16.3832 22.8884 16.5973 22.755 16.8525L15.4313 31.5H7.1C6.27783 31.5 5.48933 31.8266 4.90797 32.408C4.32661 32.9893 4 33.7778 4 34.6V51.65C4 52.4722 4.32661 53.2607 4.90797 53.842C5.48933 54.4234 6.27783 54.75 7.1 54.75H40.0181C41.1492 54.7453 42.24 54.3303 43.0881 53.5819C43.9362 52.8336 44.4839 51.8029 44.6294 50.6812L46.9544 32.0812C47.0317 31.4263 46.9717 30.7624 46.7783 30.1319C46.5848 29.5014 46.262 28.9182 45.8306 28.4194ZM7.1 34.6H14.85V51.65H7.1V34.6Z" fill="#0050B2"/>
<path d="M21.8566 5.64962L22.1262 8.74431C22.1596 9.15277 22.3534 9.53138 22.6653 9.79732C22.9771 10.0633 23.3815 10.1949 23.7902 10.1634L24.1861 10.0621C24.5072 9.94911 24.7815 9.73235 24.9656 9.44605C25.1497 9.15975 25.2331 8.82026 25.2027 8.48124L24.9513 5.37999C24.9336 5.17679 24.876 4.97906 24.7819 4.79811C24.6878 4.61715 24.559 4.4565 24.4027 4.32534C24.2465 4.19417 24.066 4.09506 23.8715 4.03365C23.677 3.97225 23.4723 3.94976 23.2691 3.96746C23.0659 3.98516 22.8682 4.04272 22.6872 4.13684C22.5063 4.23096 22.3456 4.35979 22.2145 4.516C22.0833 4.6722 21.9842 4.85271 21.9228 5.04721C21.8614 5.24172 21.8389 5.44642 21.8566 5.64962Z" fill="#0050B2"/>
<path d="M28.342 5.70393L27.5244 8.69574C27.4197 9.09156 27.4759 9.51272 27.6807 9.86726C27.8855 10.2218 28.2222 10.4809 28.6174 10.588C28.8126 10.6438 29.017 10.6602 29.2187 10.6363C29.4203 10.6123 29.6152 10.5484 29.7919 10.4484C29.9686 10.3484 30.1237 10.2142 30.248 10.0537C30.3724 9.89312 30.4636 9.70944 30.5162 9.51332L31.3338 6.52151C31.3896 6.32463 31.4058 6.11867 31.3815 5.91549C31.3573 5.71231 31.293 5.51595 31.1925 5.33772C31.092 5.1595 30.9572 5.00294 30.7958 4.87708C30.6345 4.75122 30.4498 4.65855 30.2525 4.60442C29.8535 4.4998 29.4293 4.55651 29.0717 4.76228C28.7142 4.96805 28.452 5.30634 28.342 5.70393Z" fill="#0050B2"/>
<path d="M35.1603 12.2896L36.9447 9.75285C37.181 9.41467 37.2746 8.99706 37.2053 8.59039C37.136 8.18371 36.9094 7.82068 36.5744 7.57985C36.4069 7.46228 36.2178 7.37905 36.018 7.33493C35.8182 7.29082 35.6117 7.28671 35.4103 7.32283C35.2089 7.35895 35.0166 7.43459 34.8446 7.54539C34.6725 7.65619 34.5242 7.79995 34.408 7.96839L32.6235 10.5051C32.438 10.7745 32.3425 11.0957 32.3507 11.4227C32.3588 11.7496 32.4701 12.0657 32.6688 12.3255C32.8674 12.5853 33.1432 12.7757 33.4566 12.8693C33.77 12.9629 34.1049 12.955 34.4135 12.8467C34.7104 12.7357 34.9694 12.5425 35.1603 12.2896Z" fill="#0050B2"/>
</svg>
