<svg width="64" height="63" viewBox="0 0 64 63" fill="none" xmlns="http://www.w3.org/2000/svg">
<path d="M6.78852 20.6477L10.25 22.3982C10.7054 22.6316 11.2371 22.6796 11.7288 22.532C12.2206 22.3844 12.6322 22.053 12.8738 21.6104L13.0329 21.1351C13.1293 20.7295 13.0841 20.3041 12.9045 19.9263C12.725 19.5484 12.4213 19.2397 12.0415 19.0489L8.5853 17.2751C8.35802 17.1602 8.10972 17.09 7.85459 17.0685C7.59946 17.0471 7.34248 17.0748 7.09835 17.1501C6.85421 17.2254 6.62768 17.3468 6.43171 17.5074C6.23573 17.668 6.07414 17.8647 5.95616 18.0861C5.83819 18.3076 5.76613 18.5495 5.74411 18.798C5.72209 19.0466 5.75054 19.297 5.82783 19.5348C5.90512 19.7727 6.02974 19.9934 6.19458 20.1843C6.35941 20.3753 6.56124 20.5327 6.78852 20.6477Z" fill="#0050B2"/>
<path d="M11.2104 13.9861L13.8312 16.792C14.1803 17.1596 14.6645 17.3777 15.1781 17.3987C15.6917 17.4197 16.1929 17.2419 16.5724 16.904C16.7629 16.739 16.9178 16.5387 17.0281 16.3147C17.1384 16.0908 17.2019 15.8477 17.2148 15.5996C17.2277 15.3515 17.1898 15.1034 17.1033 14.8698C17.0169 14.6361 16.8835 14.4215 16.7111 14.2385L14.0903 11.4327C13.9191 11.246 13.7118 11.0943 13.4801 10.9861C13.2484 10.8779 12.9971 10.8155 12.7405 10.8025C12.484 10.7894 12.2273 10.826 11.9854 10.9101C11.7434 10.9941 11.5209 11.1241 11.3307 11.2923C10.9513 11.6358 10.726 12.1111 10.7034 12.6152C10.6809 13.1193 10.863 13.6118 11.2104 13.9861Z" fill="#0050B2"/>
<path d="M22.7789 11.2631L21.291 7.75721C21.0916 7.29151 20.712 6.92103 20.2343 6.72596C19.7566 6.5309 19.2193 6.52692 18.7387 6.71489C18.5014 6.81076 18.2859 6.95145 18.1047 7.12886C17.9235 7.30627 17.7801 7.51688 17.6829 7.74854C17.5856 7.9802 17.5364 8.22833 17.5381 8.47862C17.5397 8.7289 17.5923 8.97639 17.6926 9.2068L19.1804 12.7127C19.3411 13.0809 19.6173 13.3901 19.9693 13.5961C20.3213 13.8021 20.7312 13.8943 21.1403 13.8595C21.5494 13.8247 21.9367 13.6648 22.2468 13.4025C22.5569 13.1403 22.7739 12.7892 22.8668 12.3995C22.949 12.0202 22.9185 11.6261 22.7789 11.2631Z" fill="#0050B2"/>
<path d="M38.298 13C33.2945 13 28.4034 14.4456 24.2432 17.1539C20.083 19.8622 16.8404 23.7116 14.9257 28.2154C13.011 32.7191 12.51 37.6749 13.4861 42.4561C14.4622 47.2373 16.8716 51.629 20.4096 55.0761C23.9476 58.5231 28.4553 60.8705 33.3626 61.8216C38.2699 62.7726 43.3565 62.2845 47.9791 60.419C52.6017 58.5535 56.5527 55.3943 59.3325 51.341C62.1123 47.2878 63.596 42.5224 63.596 37.6476C63.5831 31.1145 60.9137 24.8526 56.1722 20.2329C51.4307 15.6133 45.0035 13.0125 38.298 13ZM41.217 49.0234H40.244V50.9194C40.244 51.4222 40.039 51.9045 39.674 52.26C39.3091 52.6156 38.8141 52.8153 38.298 52.8153C37.7819 52.8153 37.2869 52.6156 36.922 52.26C36.557 51.9045 36.352 51.4222 36.352 50.9194V49.0234H32.46C31.9439 49.0234 31.4489 48.8236 31.084 48.4681C30.719 48.1125 30.514 47.6303 30.514 47.1274C30.514 46.6246 30.719 46.1423 31.084 45.7868C31.4489 45.4312 31.9439 45.2315 32.46 45.2315H41.217C41.9912 45.2315 42.7336 44.9318 43.281 44.3985C43.8284 43.8651 44.136 43.1418 44.136 42.3875C44.136 41.6332 43.8284 40.9099 43.281 40.3765C42.7336 39.8432 41.9912 39.5436 41.217 39.5436H35.379C33.5726 39.5436 31.8402 38.8444 30.5629 37.5999C29.2856 36.3555 28.568 34.6676 28.568 32.9077C28.568 31.1477 29.2856 29.4599 30.5629 28.2154C31.8402 26.9709 33.5726 26.2718 35.379 26.2718H36.352V24.3758C36.352 23.873 36.557 23.3907 36.922 23.0352C37.2869 22.6796 37.7819 22.4798 38.298 22.4798C38.8141 22.4798 39.3091 22.6796 39.674 23.0352C40.039 23.3907 40.244 23.873 40.244 24.3758V26.2718H44.136C44.6521 26.2718 45.1471 26.4715 45.512 26.8271C45.877 27.1827 46.082 27.6649 46.082 28.1677C46.082 28.6706 45.877 29.1528 45.512 29.5084C45.1471 29.864 44.6521 30.0637 44.136 30.0637H35.379C34.6048 30.0637 33.8624 30.3633 33.315 30.8967C32.7675 31.43 32.46 32.1534 32.46 32.9077C32.46 33.6619 32.7675 34.3853 33.315 34.9186C33.8624 35.452 34.6048 35.7516 35.379 35.7516H41.217C43.0234 35.7516 44.7558 36.4508 46.0331 37.6952C47.3104 38.9397 48.028 40.6276 48.028 42.3875C48.028 44.1475 47.3104 45.8353 46.0331 47.0798C44.7558 48.3243 43.0234 49.0234 41.217 49.0234Z" fill="#0050B2"/>
</svg>
