<svg width="62" height="62" viewBox="0 0 62 62" fill="none" xmlns="http://www.w3.org/2000/svg">
<g clip-path="url(#clip0_1_1099)">
<path d="M49.7696 24.2431L45.6524 17.1228C45.3058 16.5152 44.8425 15.9821 44.2891 15.5543C43.7356 15.1265 43.1031 14.8124 42.4278 14.63C41.7524 14.4477 41.0477 14.4008 40.3542 14.4919C39.6607 14.583 38.992 14.8104 38.3867 15.161C37.3074 15.7747 36.4828 16.7539 36.0617 17.922L31.7992 10.5837C31.4527 9.97609 30.9894 9.44304 30.4359 9.01523C29.8825 8.58743 29.2499 8.27332 28.5746 8.09098C27.8993 7.90865 27.1946 7.8617 26.5011 7.95283C25.8076 8.04396 25.1389 8.27137 24.5336 8.62198C23.4542 9.23565 22.6297 10.2148 22.2086 11.3829C21.4693 10.2241 20.3125 9.39405 18.9779 9.06491C17.6433 8.73577 16.2332 8.93272 15.0399 9.61494C14.4343 9.96611 13.9043 10.4337 13.4803 10.9907C13.0563 11.5477 12.7468 12.1831 12.5696 12.8603C12.3571 13.6172 12.324 14.4133 12.4727 15.1853C11.5267 15.2577 10.6086 15.5389 9.7844 16.0087C8.33823 16.849 7.28407 18.2283 6.85282 19.8443C6.42157 21.4604 6.6484 23.1814 7.48362 24.6306L7.968 25.454C7.13702 25.5504 6.33615 25.8229 5.61878 26.2532C4.17427 27.0889 3.12056 28.4638 2.68915 30.0759C2.25775 31.688 2.48392 33.4054 3.318 34.8509L12.2789 50.3751C14.1937 53.6972 17.0512 56.3764 20.4895 58.0736C23.9279 59.7707 27.7925 60.4095 31.5941 59.909C35.3957 59.4085 38.9633 57.7913 41.8453 55.2621C44.7272 52.7328 46.7939 49.4053 47.7836 45.7009L47.8563 45.386C50.3033 42.4826 51.7992 38.8974 52.1414 35.1158C52.4837 31.3341 51.6557 27.5386 49.7696 24.2431ZM44.0297 44.7079C43.5103 46.6747 42.6047 48.5185 41.3656 50.1318C40.1266 51.7451 38.5788 53.0956 36.8125 54.1048C33.2537 56.1588 29.025 56.7156 25.0558 55.6529C21.0866 54.5902 17.7018 51.995 15.6453 48.4376L6.6844 32.9134C6.44325 32.4993 6.33033 32.0231 6.35994 31.5448C6.38955 31.0666 6.56036 30.6078 6.85075 30.2267C7.14114 29.8456 7.53806 29.5591 7.9913 29.4037C8.44453 29.2482 8.9337 29.2306 9.3969 29.3532C10.018 29.5274 10.5475 29.9353 10.8742 30.4915L16.6867 40.5665C16.8598 40.8568 17.1041 41.0982 17.3966 41.2677C17.689 41.4373 18.0199 41.5293 18.3578 41.5353C18.6974 41.5341 19.0306 41.4437 19.3242 41.2731C19.6178 41.1026 19.8614 40.8579 20.0306 40.5636C20.1999 40.2692 20.2888 39.9356 20.2885 39.5961C20.2882 39.2565 20.1987 38.923 20.0289 38.629L10.8258 22.6931C10.5047 22.1343 10.4186 21.4707 10.5867 20.8485C10.7547 20.2263 11.1631 19.6963 11.7219 19.3751C12.2807 19.0539 12.9442 18.9679 13.5665 19.136C14.1887 19.304 14.7187 19.7124 15.0399 20.2712L24.243 36.2071C24.3585 36.448 24.5227 36.6624 24.7251 36.8369C24.9274 37.0113 25.1637 37.142 25.419 37.2207C25.6744 37.2994 25.9432 37.3245 26.2087 37.2943C26.4741 37.2642 26.7305 37.1794 26.9617 37.0454C27.1928 36.9114 27.3937 36.7311 27.5518 36.5157C27.7099 36.3003 27.8218 36.0546 27.8803 35.7939C27.9389 35.5332 27.9429 35.2632 27.8921 35.0009C27.8413 34.7386 27.7368 34.4896 27.5852 34.2696L20.3196 21.6759C20.0026 21.1161 19.919 20.454 20.0867 19.833C20.2544 19.212 20.66 18.682 21.2157 18.3579C21.7718 18.0422 22.4302 17.9592 23.0472 18.1271C23.6643 18.2949 24.1899 18.7 24.5094 19.254L34.6813 36.8853C34.8565 37.1791 35.1046 37.4226 35.4017 37.5924C35.6987 37.7621 36.0345 37.8522 36.3766 37.854C36.7164 37.8456 37.049 37.7541 37.3453 37.5876C37.7873 37.3296 38.1093 36.9071 38.2409 36.4125C38.3725 35.9179 38.303 35.3913 38.0477 34.9478L34.1727 28.2149C33.8546 27.6654 33.7675 27.0122 33.9305 26.3985C34.008 26.0871 34.1491 25.795 34.345 25.5407C34.5409 25.2865 34.7873 25.0755 35.0688 24.9212C35.3382 24.7572 35.6389 24.651 35.9515 24.6093C36.2642 24.5676 36.5822 24.5913 36.8852 24.679C37.1935 24.7563 37.4831 24.8948 37.7369 25.0861C37.9907 25.2775 38.2034 25.5179 38.3625 25.7931L42.4797 32.9376C43.5051 34.6989 44.1702 36.6465 44.4363 38.6672C44.7024 40.6878 44.5642 42.7412 44.0297 44.7079ZM39.961 5.98213L40.9539 2.22823C41.0191 1.98174 41.1322 1.75051 41.2868 1.54774C41.4414 1.34497 41.6344 1.17462 41.8547 1.04644C42.0751 0.918248 42.3186 0.834725 42.5713 0.800635C42.824 0.766546 43.0809 0.782558 43.3274 0.847757C43.5739 0.912956 43.8051 1.02607 44.0079 1.18063C44.2106 1.33519 44.381 1.52818 44.5092 1.74857C44.6374 1.96897 44.7209 2.21245 44.755 2.46512C44.7891 2.7178 44.773 2.97471 44.7078 3.22119L43.6907 6.9751C43.583 7.38672 43.3411 7.7507 43.0034 8.00949C42.6656 8.26827 42.2513 8.40709 41.8258 8.40401L41.3172 8.35557C40.8233 8.21962 40.4033 7.8936 40.1492 7.44881C39.895 7.00402 39.8273 6.47668 39.961 5.98213ZM46.3305 8.21026L48.5586 5.0376C48.8563 4.61655 49.3079 4.32967 49.8155 4.23902C50.3232 4.14837 50.8461 4.26125 51.2711 4.55323C51.4803 4.70043 51.6582 4.8876 51.7947 5.10392C51.9312 5.32025 52.0235 5.56145 52.0662 5.81362C52.109 6.06579 52.1014 6.32394 52.044 6.57317C51.9865 6.82239 51.8802 7.05777 51.7313 7.26573L49.5032 10.4384C49.3582 10.6467 49.1732 10.8242 48.959 10.9604C48.7448 11.0965 48.5056 11.1887 48.2554 11.2315C48.0052 11.2744 47.749 11.267 47.5017 11.2098C47.2544 11.1526 47.0209 11.0468 46.8149 10.8985C46.3955 10.6053 46.1091 10.158 46.0184 9.65428C45.9276 9.1506 46.0398 8.63148 46.3305 8.21026ZM56.9625 13.4415L53.7899 15.6696C53.4583 15.8863 53.0718 16.0039 52.6758 16.0087C52.267 16.0055 51.8696 15.873 51.5407 15.6302C51.2117 15.3874 50.968 15.0468 50.8444 14.6571C50.7207 14.2674 50.7235 13.8486 50.8524 13.4606C50.9813 13.0726 51.2295 12.7353 51.5617 12.497L54.7344 10.2689C54.9424 10.1199 55.1777 10.0137 55.427 9.95618C55.6762 9.89869 55.9343 9.89111 56.1865 9.93389C56.4387 9.97667 56.6799 10.069 56.8962 10.2054C57.1125 10.3419 57.2997 10.5198 57.4469 10.729C57.7389 11.1541 57.8518 11.677 57.7611 12.1846C57.6705 12.6923 57.3836 13.1438 56.9625 13.4415Z" fill="#0050B2"/>
</g>
<defs>
<clipPath id="clip0_1_1099">
<rect width="62" height="62" fill="white"/>
</clipPath>
</defs>
</svg>
