<svg width="209" height="60" viewBox="0 0 209 60" fill="none" xmlns="http://www.w3.org/2000/svg">
<path d="M59 29.5586C59.0203 45.7385 45.7629 59.0358 29.6195 59.0625C13.2443 59.0891 0.206179 45.8998 0.00250753 29.9565C-0.210565 13.4601 13.1832 0.0578014 29.5381 0.0625012C45.719 0.0672011 58.9812 13.3035 59 29.5586ZM3.37876 29.5617C3.41949 43.9698 15.0053 55.4702 29.1119 55.6676C43.7418 55.8728 55.4765 44.0544 55.6034 29.8045C55.7303 15.4638 44.1821 3.5482 29.712 3.46047C15.1526 3.37117 3.41949 15.0518 3.37876 29.5617Z" fill="black"/>
<path d="M24.1909 15.2304V15.7348C24.1909 24.0034 24.1909 32.2735 24.1925 40.542C24.1925 40.8146 24.205 41.0888 24.205 41.3614C24.205 41.9347 24.4964 42.2935 25.0259 42.4674C25.3205 42.5645 25.6213 42.6382 25.9205 42.7196C26.53 42.8825 26.8715 43.2632 26.8825 43.799C26.8935 44.3379 26.508 44.822 25.9158 44.963C25.6291 45.0304 25.3283 45.0742 25.0338 45.0758C21.2956 45.0836 17.559 45.0821 13.8209 45.0774C13.5984 45.0774 13.3743 45.0523 13.155 45.0116C12.5832 44.9066 12.2557 44.5557 12.2071 44.023C12.1539 43.4262 12.4046 43.011 12.956 42.7964C13.2333 42.6883 13.5169 42.5959 13.7911 42.4815C14.1687 42.3248 14.3817 42.0428 14.399 41.6246C14.4068 41.4131 14.4225 41.2031 14.4225 40.9917C14.4225 33.79 14.4225 26.5898 14.4225 19.3882V19.313C14.4225 18.1067 14.3285 17.9751 13.1754 17.5803C12.7085 17.4205 12.3027 17.1965 12.2166 16.6544C12.0975 15.9103 12.4343 15.4262 13.1769 15.2821C13.4182 15.2351 13.6689 15.221 13.9164 15.221C17.2441 15.2163 20.5718 15.2163 23.8995 15.2163C23.9731 15.2163 24.0468 15.2225 24.1862 15.2304H24.1909Z" fill="black"/>
<path d="M45.4729 23.9062C45.8975 24.0535 46.2594 24.1804 46.6198 24.3057C48.9322 25.1031 49.6106 27.1037 49.3584 29.0541C49.1406 30.7304 48.1771 31.8803 46.6809 32.604C45.4118 33.2166 44.0566 33.3795 42.6074 33.3325C42.6074 32.9127 42.5964 32.5085 42.6168 32.1059C42.6199 32.0322 42.7406 31.9304 42.8268 31.9006C43.7025 31.5951 44.0457 30.9591 44.0363 30.0661C44.0222 28.8129 44.041 27.5596 44.0269 26.3063C44.0237 26.0133 43.9736 25.7125 43.8984 25.429C43.7511 24.8713 43.3391 24.6065 42.7907 24.5266C42.5698 24.4937 42.3458 24.4827 42.1264 24.4467C41.7113 24.3762 41.5311 24.1632 41.5342 23.7668C41.5358 23.3971 41.7097 23.206 42.1296 23.1339C42.374 23.0916 42.6231 23.0806 42.8675 23.0383C43.4848 22.9302 43.9156 22.5856 43.9407 21.9746C44.0018 20.5161 44.0018 19.0529 43.9799 17.5913C43.9705 16.9474 43.5537 16.5432 42.9474 16.3787C42.6529 16.2988 42.5823 16.1562 42.6027 15.8805C42.6246 15.5609 42.6074 15.2382 42.6074 14.8403C43.1902 14.8936 43.7417 14.9218 44.2869 15.0001C45.5043 15.1755 46.6589 15.5374 47.6287 16.3301C50.0054 18.2727 49.526 22.0529 46.7341 23.4002C46.3456 23.5882 45.9335 23.7245 45.4761 23.9078L45.4729 23.9062Z" fill="black"/>
<path d="M26.0129 17.7996V15.2382H34.8178C34.8257 15.3667 34.8413 15.4967 34.8413 15.6267C34.8429 18.0346 34.8429 20.4425 34.8413 22.8519C34.8413 23.0133 34.8241 23.1746 34.8053 23.3344C34.7364 23.9172 34.481 24.2133 33.9875 24.2916C33.3749 24.3888 32.9519 24.1788 32.7216 23.6274C32.5602 23.2389 32.4474 22.83 32.2892 22.4415C31.1674 19.703 29.137 18.1599 26.1931 17.8278C26.1445 17.8215 26.096 17.8137 26.0129 17.8012V17.7996Z" fill="black"/>
<path d="M25.9911 31.1424C25.9911 30.3387 25.9817 29.5821 26.0005 28.8254C26.0037 28.7126 26.1133 28.5497 26.2152 28.5011C27.5876 27.8494 28.4477 26.8045 28.736 25.3005C28.7736 25.1078 28.8378 24.9167 28.9083 24.7318C29.1747 24.0316 29.6462 23.7778 30.3748 23.9391C30.7351 24.019 30.9262 24.2713 30.9842 24.6112C31.039 24.9277 31.0704 25.252 31.0704 25.5715C31.0766 28.4384 31.0766 31.3069 31.0704 34.1738C31.0704 34.4824 31.039 34.7942 30.9842 35.0965C30.9121 35.496 30.6818 35.778 30.2557 35.8344C29.8139 35.8939 29.394 35.8313 29.1496 35.4067C29.0086 35.1639 28.9115 34.8897 28.8363 34.6187C28.6154 33.826 28.3537 33.0552 27.8602 32.3832C27.3949 31.7487 26.7823 31.332 25.9927 31.1408L25.9911 31.1424Z" fill="black"/>
<path d="M41.4841 31.9993V33.3404C40.0318 33.1398 38.6766 32.7826 37.5736 31.7832C37.124 31.3758 36.8138 30.8745 36.6367 30.2902C36.2607 29.0447 36.643 27.7993 37.6097 27.1397C38.6672 26.416 40.1336 26.6556 40.9452 27.6833C41.7144 28.6593 41.5656 30.016 40.5927 30.8918C40.5645 30.9168 40.53 30.9356 40.5081 30.9638C40.3827 31.1346 40.2621 31.3069 40.1383 31.4777C40.3342 31.6093 40.5175 31.7769 40.7321 31.8615C40.9577 31.9492 41.2147 31.9539 41.4826 31.9993H41.4841Z" fill="black"/>
<path d="M41.4998 14.8528C41.4998 15.3291 41.5108 15.7004 41.492 16.0701C41.4873 16.1531 41.3949 16.2424 41.3259 16.3098C41.2868 16.3489 41.21 16.3474 41.152 16.3693C40.411 16.6403 40.3452 16.9725 40.9311 17.4894C41.937 18.3761 42.0106 19.7641 41.1019 20.7213C40.1822 21.6895 38.6516 21.7161 37.7397 20.7793C36.9705 19.9882 36.8452 18.55 37.4436 17.4048C37.9277 16.479 38.7127 15.8884 39.6433 15.4889C40.2183 15.2429 40.8293 15.0784 41.4998 14.8528Z" fill="black"/>
<path d="M74.4247 36.8114V33.3296H79.1621C80.0373 33.3296 80.7222 33.0728 81.2169 32.5591C81.7116 32.0454 81.9589 31.4175 81.9589 30.6755C81.9589 30.1618 81.8448 29.7052 81.6165 29.3057C81.3882 28.9061 81.0647 28.5922 80.6461 28.3639C80.2466 28.1356 79.7519 28.0214 79.1621 28.0214H74.4247V24.6253H78.7911C79.5331 24.6253 80.1324 24.4445 80.5891 24.083C81.0457 23.7025 81.274 23.1317 81.274 22.3707C81.274 21.6287 81.0457 21.0769 80.5891 20.7155C80.1324 20.3349 79.5331 20.1447 78.7911 20.1447H74.4247V16.6629H79.6473C80.941 16.6629 82.035 16.9008 82.9292 17.3764C83.8425 17.8521 84.5369 18.4894 85.0126 19.2885C85.4882 20.0876 85.7261 20.9723 85.7261 21.9426C85.7261 23.1793 85.3265 24.2257 84.5274 25.0819C83.7283 25.9381 82.5487 26.5279 80.9886 26.8513L81.1028 25.3387C82.7961 25.6622 84.0993 26.3186 85.0126 27.3079C85.9449 28.2973 86.411 29.5149 86.411 30.9609C86.411 32.0644 86.1351 33.0633 85.5834 33.9575C85.0506 34.8327 84.2706 35.5271 83.2432 36.0408C82.2348 36.5545 81.0171 36.8114 79.5902 36.8114H74.4247ZM71 36.8114V16.6629H75.4235V36.8114H71Z" fill="black"/>
<path d="M89.1686 36.8114V16.0922H93.535V36.8114H89.1686Z" fill="black"/>
<path d="M103.06 37.1253C101.785 37.1253 100.653 36.8685 99.6635 36.3548C98.6932 35.822 97.9321 35.099 97.3804 34.1858C96.8286 33.2535 96.5528 32.1881 96.5528 30.9894V22.9415H100.919V30.9324C100.919 31.408 100.995 31.8171 101.148 32.1595C101.319 32.502 101.566 32.7684 101.89 32.9586C102.213 33.1489 102.603 33.244 103.06 33.244C103.707 33.244 104.22 33.0442 104.601 32.6447C104.981 32.2261 105.172 31.6554 105.172 30.9324V22.9415H109.538V30.9609C109.538 32.1786 109.262 33.2535 108.71 34.1858C108.159 35.099 107.398 35.822 106.427 36.3548C105.457 36.8685 104.334 37.1253 103.06 37.1253Z" fill="black"/>
<path d="M119.414 37.1253C117.911 37.1253 116.57 36.8209 115.39 36.2121C114.23 35.5842 113.316 34.7185 112.65 33.615C111.985 32.5115 111.652 31.2653 111.652 29.8764C111.652 28.4875 111.975 27.2509 112.622 26.1664C113.288 25.0629 114.182 24.1972 115.305 23.5693C116.427 22.9415 117.692 22.6276 119.1 22.6276C120.47 22.6276 121.678 22.9225 122.725 23.5123C123.771 24.1021 124.589 24.9202 125.179 25.9666C125.788 27.013 126.092 28.2117 126.092 29.5625C126.092 29.8098 126.073 30.0762 126.035 30.3616C126.016 30.628 125.969 30.9419 125.893 31.3034L113.935 31.3319V28.3353L124.037 28.3068L122.154 29.5625C122.135 28.7634 122.011 28.107 121.783 27.5933C121.555 27.0606 121.212 26.661 120.756 26.3947C120.318 26.1093 119.776 25.9666 119.129 25.9666C118.444 25.9666 117.845 26.1283 117.331 26.4518C116.836 26.7562 116.446 27.1938 116.161 27.7646C115.894 28.3353 115.761 29.0298 115.761 29.8479C115.761 30.666 115.904 31.37 116.189 31.9598C116.494 32.5305 116.912 32.9777 117.445 33.3011C117.997 33.6055 118.644 33.7577 119.386 33.7577C120.071 33.7577 120.689 33.6436 121.241 33.4152C121.792 33.1679 122.278 32.8064 122.696 32.3308L125.093 34.728C124.408 35.5271 123.581 36.1264 122.611 36.526C121.64 36.9255 120.575 37.1253 119.414 37.1253Z" fill="black"/>
<path d="M138.03 28.5066V25.1961H142.282C143.176 25.1961 143.861 24.9677 144.337 24.5111C144.831 24.0545 145.079 23.4362 145.079 22.6561C145.079 21.9331 144.841 21.3338 144.365 20.8581C143.89 20.3825 143.205 20.1447 142.31 20.1447H138.03V16.6629H142.824C144.156 16.6629 145.326 16.9198 146.334 17.4335C147.343 17.9282 148.132 18.6226 148.703 19.5168C149.274 20.411 149.559 21.4384 149.559 22.599C149.559 23.7786 149.274 24.8155 148.703 25.7098C148.132 26.5849 147.333 27.2699 146.306 27.7646C145.278 28.2592 144.07 28.5066 142.681 28.5066H138.03ZM134.605 36.8114V16.6629H139.085V36.8114H134.605ZM145.564 36.8114L139.285 28.1356L143.395 27.0225L150.872 36.8114H145.564Z" fill="black"/>
<path d="M153.108 36.8114V22.9415H157.474V36.8114H153.108ZM155.305 21.0294C154.62 21.0294 154.05 20.8011 153.593 20.3444C153.155 19.8688 152.937 19.298 152.937 18.6321C152.937 17.9472 153.155 17.3764 153.593 16.9198C154.05 16.4632 154.62 16.2348 155.305 16.2348C155.99 16.2348 156.552 16.4632 156.989 16.9198C157.427 17.3764 157.646 17.9472 157.646 18.6321C157.646 19.298 157.427 19.8688 156.989 20.3444C156.552 20.8011 155.99 21.0294 155.305 21.0294Z" fill="black"/>
<path d="M166.742 37.0968C165.429 37.0968 164.259 36.7828 163.232 36.155C162.223 35.5271 161.424 34.671 160.835 33.5865C160.264 32.502 159.978 31.2653 159.978 29.8764C159.978 28.4875 160.264 27.2509 160.835 26.1664C161.424 25.0819 162.223 24.2257 163.232 23.5979C164.259 22.97 165.429 22.6561 166.742 22.6561C167.693 22.6561 168.55 22.8368 169.311 23.1983C170.091 23.5598 170.728 24.064 171.223 24.7109C171.736 25.3387 172.022 26.0617 172.079 26.8798V32.7303C172.022 33.5484 171.746 34.2904 171.251 34.9563C170.757 35.6032 170.119 36.1264 169.339 36.526C168.559 36.9065 167.693 37.0968 166.742 37.0968ZM167.513 33.1584C168.141 33.1584 168.683 33.0252 169.139 32.7589C169.596 32.4735 169.957 32.0834 170.224 31.5888C170.49 31.0941 170.623 30.5233 170.623 29.8764C170.623 29.2295 170.49 28.6683 170.224 28.1926C169.977 27.698 169.615 27.3079 169.139 27.0225C168.683 26.7372 168.15 26.5945 167.541 26.5945C166.932 26.5945 166.39 26.7372 165.914 27.0225C165.458 27.3079 165.087 27.698 164.801 28.1926C164.535 28.6873 164.402 29.2486 164.402 29.8764C164.402 30.5043 164.535 31.0655 164.801 31.5602C165.068 32.0549 165.439 32.4449 165.914 32.7303C166.39 33.0157 166.923 33.1584 167.513 33.1584ZM174.733 36.8114H170.452V33.0728L171.109 29.7052L170.367 26.3376V16.0922H174.733V36.8114Z" fill="black"/>
<path d="M183.972 43.0328C182.45 43.0328 181.108 42.7665 179.948 42.2338C178.806 41.7201 177.903 40.9876 177.237 40.0363L179.919 37.3536C180.414 37.9434 180.966 38.3905 181.575 38.6949C182.202 38.9994 182.954 39.1516 183.829 39.1516C184.914 39.1516 185.76 38.8852 186.369 38.3525C186.997 37.8197 187.311 37.0682 187.311 36.0979V32.5591L188.053 29.534L187.396 26.5088V22.9415H191.677V35.9837C191.677 37.4107 191.344 38.6474 190.678 39.6938C190.013 40.7402 189.099 41.5583 187.939 42.1481C186.778 42.7379 185.456 43.0328 183.972 43.0328ZM183.772 36.3833C182.497 36.3833 181.365 36.0789 180.376 35.47C179.387 34.8612 178.606 34.0336 178.036 32.9872C177.465 31.9407 177.18 30.7802 177.18 29.5054C177.18 28.2117 177.465 27.0511 178.036 26.0237C178.606 24.9773 179.387 24.1591 180.376 23.5693C181.365 22.9605 182.497 22.6561 183.772 22.6561C184.723 22.6561 185.57 22.8368 186.312 23.1983C187.073 23.5408 187.682 24.0355 188.138 24.6824C188.614 25.3102 188.88 26.0427 188.938 26.8798V32.1595C188.88 32.9777 188.614 33.7101 188.138 34.357C187.682 34.9849 187.073 35.4796 186.312 35.8411C185.551 36.2025 184.704 36.3833 183.772 36.3833ZM184.6 32.502C185.208 32.502 185.732 32.3688 186.169 32.1025C186.626 31.8361 186.968 31.4841 187.197 31.0465C187.444 30.5899 187.568 30.0762 187.568 29.5054C187.568 28.9346 187.444 28.4209 187.197 27.9643C186.968 27.5077 186.626 27.1462 186.169 26.8798C185.732 26.6135 185.208 26.4803 184.6 26.4803C184.01 26.4803 183.487 26.6135 183.03 26.8798C182.573 27.1462 182.221 27.5077 181.974 27.9643C181.727 28.4209 181.603 28.9346 181.603 29.5054C181.603 30.0381 181.727 30.5423 181.974 31.018C182.221 31.4746 182.564 31.8361 183.001 32.1025C183.458 32.3688 183.991 32.502 184.6 32.502Z" fill="black"/>
<path d="M201.894 37.1253C200.391 37.1253 199.049 36.8209 197.87 36.2121C196.709 35.5842 195.796 34.7185 195.13 33.615C194.464 32.5115 194.131 31.2653 194.131 29.8764C194.131 28.4875 194.455 27.2509 195.102 26.1664C195.767 25.0629 196.662 24.1972 197.784 23.5693C198.907 22.9415 200.172 22.6276 201.58 22.6276C202.95 22.6276 204.158 22.9225 205.204 23.5123C206.251 24.1021 207.069 24.9202 207.659 25.9666C208.267 27.013 208.572 28.2117 208.572 29.5625C208.572 29.8098 208.553 30.0762 208.515 30.3616C208.496 30.628 208.448 30.9419 208.372 31.3034L196.414 31.3319V28.3353L206.517 28.3068L204.633 29.5625C204.614 28.7634 204.491 28.107 204.262 27.5933C204.034 27.0606 203.692 26.661 203.235 26.3947C202.797 26.1093 202.255 25.9666 201.608 25.9666C200.923 25.9666 200.324 26.1283 199.81 26.4518C199.316 26.7562 198.926 27.1938 198.64 27.7646C198.374 28.3353 198.241 29.0298 198.241 29.8479C198.241 30.666 198.383 31.37 198.669 31.9598C198.973 32.5305 199.392 32.9777 199.925 33.3011C200.476 33.6055 201.123 33.7577 201.865 33.7577C202.55 33.7577 203.168 33.6436 203.72 33.4152C204.272 33.1679 204.757 32.8064 205.176 32.3308L207.573 34.728C206.888 35.5271 206.06 36.1264 205.09 36.526C204.12 36.9255 203.054 37.1253 201.894 37.1253Z" fill="black"/>
</svg>
